<svg width="32" height="32" version="1.1" xmlns="http://www.w3.org/2000/svg">
 <g>
  <path d="m16 1c-8.2843 0-15 6.7157-15 15s6.7157 15 15 15 15-6.7157 15-15-6.7157-15-15-15z" fill="#ececec"/>
  <path d="m16 27c-6.075 0-11-4.925-11-11s4.925-11 11-11 11 4.925 11 11-4.925 11-11 11z" fill="#b8b8b8"/>
  <path d="m16.25 11a2.75 2.75 0 0 0-2.75 2.75c0 1.14 0.683 2.112 1.67 2.53l-1.67 5.72h5.5l-1.67-5.72a2.735 2.735 0 0 0 1.67-2.53 2.75 2.75 0 0 0-2.75-2.75z" fill="#303030" overflow="visible" stroke-width="1.091"/>
 </g>
 <path d="M16 10.695a2.83 2.83 0 0 0-2.83 2.83c0 1.172.703 2.172 1.72 2.601l-1.72 5.886h5.66l-1.718-5.886a2.814 2.814 0 0 0 1.717-2.602A2.83 2.83 0 0 0 16 10.695z" fill="none" overflow="visible" stroke-width="1.06"/>
</svg>
