<svg width="32" height="32" version="1.1" xmlns="http://www.w3.org/2000/svg">
 <path d="m16 1c-8.2768 0-15 6.7232-15 15s6.7232 15 15 15 15-6.7232 15-15-6.7232-15-15-15z" color="#000000" fill="#f0f2f2" overflow="visible"/>
 <path d="M0 0h32v32H0z" fill="none"/>
 <path d="M16.437 11.666h-.666l-.667 4.667L18.438 19v-.667l-2-2.667z" fill="#4e4e4e" fill-rule="evenodd" opacity=".5"/>
 <path d="m16 8c-4.416 0-8 3.584-8 8s3.584 8 8 8 8-3.584 8-8-3.584-8-8-8zm0 2c3.312 0 6 2.688 6 6s-2.688 6-6 6-6-2.688-6-6 2.688-6 6-6z" fill="#333" fill-rule="evenodd" opacity=".5"/>
</svg>
