<?xml version="1.0" encoding="UTF-8"?>
<svg width="16" height="16" version="1.1" viewBox="0 0 16 16" xmlns="http://www.w3.org/2000/svg" xmlns:cc="http://creativecommons.org/ns#" xmlns:dc="http://purl.org/dc/elements/1.1/" xmlns:rdf="http://www.w3.org/1999/02/22-rdf-syntax-ns#">
 <metadata>
  <rdf:RDF>
   <cc:Work rdf:about="">
    <dc:format>image/svg+xml</dc:format>
    <dc:type rdf:resource="http://purl.org/dc/dcmitype/StillImage"/>
    <dc:title/>
   </cc:Work>
  </rdf:RDF>
 </metadata>
 <defs>
  <style id="current-color-scheme" type="text/css">.ColorScheme-Text { color:#727272; } .ColorScheme-Highlight { color:#5294e2; }</style>
  <style type="text/css">.ColorScheme-Text { color:#727272; } .ColorScheme-Highlight { color:#5294e2; }</style>
  <style type="text/css">.ColorScheme-Text { color:#727272; } .ColorScheme-Highlight { color:#5294e2; }</style>
  <linearGradient id="linearGradient1005-3" x1="15.087" x2="3.1808" y1="15.187" y2="3.2805" gradientTransform="matrix(.7559 0 0 .75591 16.596 14.52)" gradientUnits="userSpaceOnUse">
   <stop stop-color="#26576d" offset="0"/>
   <stop stop-color="#58b1dd" offset=".67617"/>
   <stop stop-color="#58b1de" offset="1"/>
  </linearGradient>
  <linearGradient id="linearGradient1134" x1="300.65" x2="327.81" y1="70.232" y2="36.997" gradientTransform="matrix(.22945 0 0 .23179 -47.997 8.2396)" gradientUnits="userSpaceOnUse">
   <stop stop-color="#d2edf3" offset="0"/>
   <stop stop-color="#add4dd" offset="1"/>
  </linearGradient>
 </defs>
 <path class="ColorScheme-Text" d="m31.724 2v12h12v-12zm9 1h2v1.001h-2zm-8 3h10v1h-10zm8 2h2v1h-2zm-8 2h10v1h-10zm8 2h2v1h-2z" fill="currentColor"/>
 <g transform="translate(-13.022 -14.915)">
  <path d="m29.022 20.915c0 0.71928-0.12661 1.4089-0.35878 2.0481-0.16139 0.44424-0.37371 0.86422-0.63036 1.2527-0.10751 0.16334-0.2231 0.32107-0.34579 0.47266-0.3928 0.48514-0.8596 0.9076-1.3836 1.2505-0.19298 0.12637-0.39356 0.24197-0.60121 0.34554-0.80639 0.40357-1.7167 0.63059-2.6801 0.63059s-1.8737-0.22702-2.6801-0.6306c-0.20768-0.1036-0.40849-0.21919-0.60147-0.34554-0.53069-0.34751-1.0031-0.77662-1.3991-1.2698-0.12293-0.15281-0.23828-0.312-0.34579-0.47681-0.2498-0.38203-0.45672-0.79423-0.61492-1.2299-0.23214-0.63896-0.35852-1.3283-0.35852-2.0473 0-3.3137 2.6862-6 5.9999-6 1.6634 0 3.1685 0.6769 4.2553 1.7701 0.31321 0.31492 0.59167 0.66466 0.82867 1.0428 0.22408 0.35609 0.41142 0.73763 0.55713 1.139 0.2322 0.63919 0.3588 1.3288 0.3588 2.0481z" fill="url(#linearGradient1005-3)" stroke-width=".023438"/>
  <path d="m23.029 15.282-0.70491 0.40608c-0.08813 0.06249-0.11771 0.18741-0.02958 0.2499l0.20569 0.15619c0.02938 0.03124 0.08803 0.03124 0.11741 0.03124l0.61707-0.15619h0.02958l0.44051-0.2499c0.14689-0.06249 0.14689-0.24989 0-0.28114l-0.55837-0.15619zm2.8206 0.3436-1.1167 0.21866c-0.02938 0-0.02932-7e-6 -0.0587 0.03124l-1.3511 0.84386c-0.02938 0-0.05892 0.03124-0.08828 0.03124h-0.96927c-0.02938 0-0.05891-1e-5 -0.08828 0.03124l-1.6159 1.1557c-0.08813 0.0625-0.08813 0.18741 0 0.2499l0.29397 0.2499c0.02938 0.03125 0.11761 0.03124 0.14699 0.03124l1.0867-0.56227c0.05876-0.03125 0.11761-0.03125 0.14699 0l0.41138 0.31237c0.05876 0.03125 0.14693 0.03127 0.20569-0.03124l0.14698-0.18743c0.02938-0.0625 0.11735-0.06249 0.17612-0.03124l0.61707 0.31237s0.02913-1.5e-5 0.02913 0.03124l0.3818 0.34406c0.02938 0.03125 0.08847 0.03124 0.11786 0.03124l0.3818-0.06247c0.11751-0.03125 0.20549 0.09368 0.17612 0.18742l-0.11741 0.37485c-0.02938 0.0625 2e-4 0.12494 0.02957 0.15619l0.93975 0.90587c0.02938 0.03125 0.02931 0.06248 0.0587 0.09371l0.08828 0.62519c0 0.09373 0.11756 0.1562 0.2057 0.12495l0.76361-0.31237c0.02938 0 0.05915-0.03122 0.05915-0.06248l0.44051-0.62519c0.05876-0.0625 0.0587-0.0937 0.0587-0.15619l-0.0587-0.40608c-0.02938-0.12498 0.08798-0.21867 0.17612-0.18742l0.55837 0.18742c0.05876 0.03124 0.08783 0.06247 0.08783 0.12495l0.23527 1.1562c0.02938 0.12498 0.17626 0.1562 0.26439 0.06247l0.35268-0.46855c-0.23501-2.0934-1.4688-3.8745-3.1728-4.7806zm-0.32355 1.8747 0.73448 0.31237c0.04407 0.03124 0.07368 0.07022 0.0847 0.11317 0.01102 0.04296 0.0034 0.08985-0.02599 0.13672l-0.20524 0.31238c-0.02938 0.0625-0.08823 0.06247-0.14698 0.06247l-0.6462-0.09371c-0.08813 0-0.14724-0.0937-0.11786-0.18742l0.14699-0.49979c0.02938-0.09373 0.11735-0.12493 0.17612-0.15619zm-3.6428 1.4061-1.1454 0.09371c-0.14688 0-0.29387 0.09368-0.41138 0.21866l-0.73448 0.81216c-0.05876 0.0625-0.08828 0.12492-0.08828 0.21866v0.93754c0 0.09373 0.05911 0.18741 0.11786 0.2499l0.55792 0.40608c0.05876 0.03125 0.11756 0.06247 0.20569 0.06247l1.1459-0.12495c0.11751 0 0.23477 0.06247 0.29353 0.15619l0.76406 1.4374c0.02938 0.06249 0.05851 0.15617 0.02913 0.21866l-0.14654 0.56272c-0.02938 0.09373-2.53e-4 0.18741 0.02913 0.2499l0.67578 1.0933c0.05875 0.09373 0.17602 0.1562 0.29352 0.12495l0.91105-0.15619c0.08813 0 0.17632-0.06246 0.20569-0.15619l0.85193-1.531c0.02938-0.0625 0.02913-0.0937 0.02913-0.15619v-0.84336c0-0.09373 0.02953-0.18741 0.08828-0.2499l0.73448-0.68767c0.14689-0.12497 0.14689-0.34358 0-0.46855l-0.38181-0.31237-0.99888-0.78138c-0.05876-0.0625-0.11786-0.15616-0.11786-0.2499l-0.02913-0.56226c0.02938-0.09373-0.11751-0.21866-0.2644-0.21866h-1.7038c-0.02938 0-0.05911 1.2e-5 -0.11786-0.03124l-0.67533-0.28114c-0.02938-0.03124-0.08847-0.03124-0.11786-0.03124zm4.5539 4.5303c-0.02938 0-0.08829 0.03122-0.08829 0.06248l-0.49922 0.75014c-0.02938 0.03125-0.02958 0.0937-0.02958 0.12495l0.08828 0.46855c0.02938 0.09373 0.14693 0.1562 0.20569 0.09371l0.41094-0.2499c0.02938-0.03124 0.05871-0.06248 0.05871-0.09371l0.23527-0.96879c0.02938-0.09373-0.05886-0.18742-0.14699-0.18742z" fill="url(#linearGradient1134)" stroke-width=".82464"/>
 </g>
 <g>
  <rect x="1" y="5" width="11" height="8" ry="0" fill="#0a6da8" stroke-width=".92787"/>
  <rect x="2.1" y="6" width="8.9" height="6" ry="0" fill="#25adff" stroke-width=".7228"/>
  <rect x="5.5" y="13" width="2" height="1" ry="0" fill="#c3ced5" stroke-width=".70711"/>
  <rect x="3.5" y="14" width="6" height="1" ry="0" fill="#a4bac1" stroke-width="1.2247"/>
 </g>
</svg>
