<svg width="16" height="16" version="1.1" xmlns="http://www.w3.org/2000/svg">
 <defs>
  <style id="current-color-scheme" type="text/css">
   .ColorScheme-Text { color:#d3dae3; } .ColorScheme-Highlight { color:#5294e2; }
  </style>
 </defs>
    <g style="fill:currentColor" class="ColorScheme-Text">
        <path d="M12 1.303l3.989 4.238L13.3 8.01l2.688 2.468L12 14.717V9.103l-2.428 2.04-.644-.766 2.818-2.367-2.818-2.367.644-.766L12 6.916zm1 2.414v3.24l1.508-1.48zm0 5.345v3.24l1.508-1.76z" />
        <path d="M7 1.334L3.5 5H.871S0 5.894 0 8.002C0 10.11.871 11 .871 11H3.5L7 14.666zM6 3.828v8.344L3.928 10H1.414c-.032-.059-.02-.016-.066-.117C1.185 9.52 1 8.918 1 8.002c0-.917.185-1.52.348-1.885.045-.101.034-.058.066-.117h2.514z"/>
    </g>
</svg>
