<svg width="16" height="16" version="1.1" xmlns="http://www.w3.org/2000/svg">
 <defs>
  <style id="current-color-scheme" type="text/css">
   .ColorScheme-Text { color:#d3dae3; } .ColorScheme-Highlight { color:#5294e2; }
  </style>
 </defs>
    <g style="fill:currentColor" class="ColorScheme-Text">
        <path d="M8 1.334L4.5 5H1.871S1 5.894 1 8.002C1 10.11 1.871 11 1.871 11H4.5L8 14.666z"/>
        <path d="M10.524 4.926l-.707.707.354.354a2.999 2.999 0 0 1 0 4.242l-.354.353.707.707.354-.353a4 4 0 0 0 0-5.656z"/>
        <path d="M12.645 2.805l-.707.707.354.353a5.999 5.999 0 0 1 0 8.485l-.354.353.707.707.354-.353a7 7 0 0 0 0-9.899z"/>
    </g>
</svg>
