<?xml version="1.0" encoding="UTF-8" standalone="no"?>
<svg
   xmlns:dc="http://purl.org/dc/elements/1.1/"
   xmlns:cc="http://creativecommons.org/ns#"
   xmlns:rdf="http://www.w3.org/1999/02/22-rdf-syntax-ns#"
   xmlns:svg="http://www.w3.org/2000/svg"
   xmlns="http://www.w3.org/2000/svg"
   xmlns:sodipodi="http://sodipodi.sourceforge.net/DTD/sodipodi-0.dtd"
   xmlns:inkscape="http://www.inkscape.org/namespaces/inkscape"
   width="16"
   height="16"
   version="1.1"
   id="svg7"
   sodipodi:docname="drive-removable-media.svg"
   inkscape:version="0.92.5 (6c0c36ef5a, 2020-05-15, custom)">
  <metadata
     id="metadata11">
    <rdf:RDF>
      <cc:Work
         rdf:about="">
        <dc:format>image/svg+xml</dc:format>
        <dc:type
           rdf:resource="http://purl.org/dc/dcmitype/StillImage" />
      </cc:Work>
    </rdf:RDF>
  </metadata>
  <sodipodi:namedview
     pagecolor="#ffffff"
     bordercolor="#666666"
     borderopacity="1"
     objecttolerance="10"
     gridtolerance="10"
     guidetolerance="10"
     inkscape:pageopacity="0"
     inkscape:pageshadow="2"
     inkscape:window-width="1920"
     inkscape:window-height="1000"
     id="namedview9"
     showgrid="false"
     inkscape:zoom="14.75"
     inkscape:cx="3.4576271"
     inkscape:cy="14.101695"
     inkscape:window-x="0"
     inkscape:window-y="0"
     inkscape:window-maximized="1"
     inkscape:current-layer="svg7" />
  <defs
     id="defs3">
    <style
       id="current-color-scheme"
       type="text/css">
   .ColorScheme-Text { color:#d3dae3; } .ColorScheme-Highlight { color:#5294e2; }
  </style>
    <style
       type="text/css"
       id="current-color-scheme-3">.ColorScheme-Text { color:#d3dae3; } .ColorScheme-Highlight { color:#5294e2; }</style>
    <linearGradient
       gradientUnits="userSpaceOnUse"
       gradientTransform="scale(1,0.54545)"
       y2="11"
       x2="24"
       x1="24"
       id="linearGradient856">
      <stop
         id="stop821"
         offset="0"
         stop-color="#e1e3e6" />
      <stop
         id="stop823"
         offset="1"
         stop-color="#e1e3e6" />
    </linearGradient>
    <linearGradient
       gradientUnits="userSpaceOnUse"
       gradientTransform="matrix(1,0,0,0.45455,0,6)"
       y2="11"
       x2="24"
       x1="24"
       id="linearGradient863">
      <stop
         id="stop826"
         offset="0"
         stop-color="#e1e3e6" />
      <stop
         id="stop828"
         offset="1"
         stop-color="#acadae" />
    </linearGradient>
  </defs>
  <path
     d="m -19.328034,1 c -1.258,0.015 -2.179,-0.03 -2.931,0.385 a 1.88,1.88 0 0 0 -0.838,0.998 c -0.165,0.439 -0.225,0.96 -0.225,1.617 v 8 c 0,0.658 0.06,1.179 0.225,1.617 0.164,0.439 0.461,0.79 0.838,0.998 0.752,0.416 1.673,0.37 2.931,0.385 h 8.012 c 1.258,-0.014 2.1790001,0.03 2.9320001,-0.385 a 1.88,1.88 0 0 0 0.838,-0.998 c 0.164,-0.438 0.224,-0.96 0.224,-1.617 V 4 c 0,-0.658 -0.06,-1.178 -0.225,-1.617 a 1.88,1.88 0 0 0 -0.837,-0.998 C -9.1370339,0.969 -10.058034,1.015 -11.316034,1 h -8.008 z m 0.006,1 h 8 c 1.259,0.015 2.0870001,0.06 2.4530001,0.262 0.184,0.101 0.29,0.213 0.387,0.472 0.097,0.26 0.16,0.674 0.16,1.266 v 6 H -22.322034 V 4 c 0,-0.592 0.063,-1.006 0.16,-1.266 0.098,-0.26 0.202,-0.371 0.385,-0.472 0.365,-0.202 1.195,-0.247 2.455,-0.262 z m -3,9 h 14.0000001 v 1 c 0,0.592 -0.062,1.006 -0.16,1.266 -0.098,0.26 -0.203,0.371 -0.387,0.472 -0.366,0.202 -1.1940001,0.247 -2.4530001,0.262 h -8 c -1.258,-0.015 -2.09,-0.06 -2.455,-0.262 -0.183,-0.1 -0.287,-0.212 -0.385,-0.472 -0.097,-0.26 -0.16,-0.674 -0.16,-1.266 z m 1,1 v 1 h 12.0000001 v -1 z"
     style="color:#d3dae3;fill:currentColor"
     class="ColorScheme-Text"
     id="path5"
     inkscape:connector-curvature="0" />
  <g
     transform="translate(-16,2.5)"
     id="g851">
    <path
       style="fill:url(#linearGradient863);stroke-width:1.2076"
       inkscape:connector-curvature="0"
       d="m 17,6 h 14 v 5 H 17 Z"
       id="path843" />
    <path
       style="fill:url(#linearGradient856);stroke-width:1.32290006"
       inkscape:connector-curvature="0"
       d="m 18,0 h 12 l 1,6 H 17 Z"
       id="path845" />
    <rect
       style="fill:#313131"
       x="18"
       y="6"
       width="12"
       height="4"
       ry="0"
       id="rect847" />
    <circle
       style="fill:#13dd13;stroke-width:2"
       cx="28"
       cy="8"
       r="1"
       id="circle849" />
  </g>
</svg>
