<svg width="16" height="16" version="1.1" xmlns="http://www.w3.org/2000/svg">
 <defs>
  <style id="current-color-scheme" type="text/css">
   .ColorScheme-Text { color:#d3dae3; } .ColorScheme-Highlight { color:#5294e2; }
  </style>
 </defs>
    <g style="fill:currentColor" class="ColorScheme-Text">
        <path d="M4.5 1c-.542 0-.984.064-1.36.23a1.72 1.72 0 0 0-.837.797C1.963 2.707 2 3.5 2 4.5v8c0 1-.037 1.794.303 2.473.17.34.462.63.838.797.375.166.817.23 1.359.23h5c.542 0 .984-.064 1.36-.23a1.72 1.72 0 0 0 .837-.797c.34-.68.303-1.473.303-2.473v-8c0-1 .037-1.794-.303-2.473a1.72 1.72 0 0 0-.838-.796C10.484 1.064 10.042 1 9.5 1zm0 1h5c.458 0 .766.061.953.145.187.083.27.167.35.328.16.32.197 1.027.197 2.027v8c0 1-.037 1.706-.197 2.027a.615.615 0 0 1-.35.329c-.187.083-.495.144-.953.144h-5c-.458 0-.766-.061-.953-.144a.615.615 0 0 1-.35-.329C3.037 14.207 3 13.5 3 12.5v-8c0-1 .037-1.706.197-2.027a.615.615 0 0 1 .35-.328C3.734 2.06 4.042 2 4.5 2z" />
        <path d="M4 3v4h6V3z" />
        <path d="M7 8c-1.65 0-3 1.35-3 3 0 1.651 1.35 3 3 3 1.651 0 3-1.349 3-3 0-1.65-1.349-3-3-3zm0 1c1.11 0 2 .89 2 2 0 1.11-.89 2-2 2-1.11 0-2-.89-2-2 0-1.11.89-2 2-2z" />
    </g>
</svg>
