<svg width="16" height="16" version="1.1" xmlns="http://www.w3.org/2000/svg">
 <defs>
  <style id="current-color-scheme" type="text/css">
   .ColorScheme-Text { color:#d3dae3; } .ColorScheme-Highlight { color:#5294e2; }
  </style>
 </defs>
 <g transform="translate(-273 135)" style="fill:currentColor" class="ColorScheme-Text">
  <path transform="translate(221 -367)" d="m60 232.26s-1.6364 2.7383-6 2.7383c0 9.3095 6 12.594 6 12.594s6-3.2842 6-12.594c-4.3636 0-6-2.7383-6-2.7383zm0 1.3867c0.2717 0.31199 0.25698 0.41895 0.78125 0.79492 0.91138 0.65362 2.3619 1.1902 4.1523 1.3906-0.17355 3.9434-1.4386 6.642-2.7305 8.3516-0.9815 1.2989-1.74 1.8784-2.2031 2.1934-0.46316-0.31499-1.2216-0.89445-2.2031-2.1934-1.2918-1.7096-2.5569-4.4082-2.7305-8.3516 1.7904-0.20047 3.241-0.737 4.1523-1.3906 0.52457-0.37619 0.50954-0.48285 0.78125-0.79492zm0 1.4082c-0.09205 0.0797-0.0727 0.10852-0.19922 0.19922-0.88867 0.63733-2.1505 1.0665-3.582 1.3457 0.30478 3.2309 1.3022 5.5581 2.377 6.9805 0.65598 0.8681 1.0148 1.0971 1.4043 1.4082 0.38948-0.31107 0.75015-0.53992 1.4062-1.4082 1.0746-1.4221 2.0719-3.7488 2.377-6.9785-1.4326-0.27917-2.6948-0.70998-3.584-1.3477-0.12652-0.0907-0.10722-0.11952-0.19922-0.19922z"/>
 </g>
</svg>
