<svg width="16" height="16" version="1.1" xmlns="http://www.w3.org/2000/svg">
 <defs>
  <style id="current-color-scheme" type="text/css">
   .ColorScheme-Text { color:#d3dae3; } .ColorScheme-Highlight { color:#5294e2; }
  </style>
 </defs>
    <path d="M3.994 0C2.736.015 1.815-.03 1.063.385a1.88 1.88 0 0 0-.838.998C.06 1.822 0 2.343 0 3v7c0 .658.06 1.179.225 1.617.164.439.461.79.838.998.282.156.599.234.937.287v-1.027a1.634 1.634 0 0 1-.455-.137c-.183-.1-.287-.212-.385-.472C1.063 11.006 1 10.592 1 10V9h14v1c0 .592-.063 1.006-.16 1.266-.098.26-.203.371-.387.472a1.63 1.63 0 0 1-.453.137v1.027c.339-.053.655-.13.938-.287a1.88 1.88 0 0 0 .837-.998c.165-.438.225-.96.225-1.617V3c0-.658-.06-1.178-.225-1.617a1.88 1.88 0 0 0-.837-.998c-.753-.416-1.674-.37-2.932-.385H3.998zM4 1h8c1.259.015 2.087.06 2.453.262.184.101.29.213.387.472.097.26.16.674.16 1.266v5H1V3c0-.592.063-1.006.16-1.266.098-.26.202-.371.385-.472C1.91 1.06 2.74 1.015 4 1zm-2 9a6 6 0 1 0 12 0h-1a5 5 0 0 1-10 0zm4 0a2 2 0 1 0 4 0H9a1 1 0 0 1-2 0z" style="fill:currentColor" class="ColorScheme-Text"/>
</svg>
