<svg width="16" height="16" version="1.1" xmlns="http://www.w3.org/2000/svg">
 <defs>
  <style id="current-color-scheme" type="text/css">
   .ColorScheme-Text { color:#d3dae3; } .ColorScheme-Highlight { color:#5294e2; }
  </style>
 </defs>
    <g style="fill:currentColor" class="ColorScheme-Text">
        <path d="M2.246 11.01c-.268.002-.472-.029-.758.084a.801.801 0 0 0-.39.346.93.93 0 0 0-.098.453v2.224a.93.93 0 0 0 .098.453c.083.16.248.29.39.346.286.113.49.082.758.084h1.508c.268-.002.472.029.758-.084a.801.801 0 0 0 .39-.346.93.93 0 0 0 .098-.453v-2.224a.93.93 0 0 0-.098-.453.801.801 0 0 0-.39-.346c-.286-.113-.49-.082-.758-.084H2.248zm.004 1h1.5c.17.002.19.003.25.008v1.974c-.06.004-.08.006-.25.008h-1.5a2.88 2.88 0 0 1-.25-.008v-1.974c.06-.004.08-.006.25-.008zM2.246 6.01c-.268.002-.472-.029-.758.084a.801.801 0 0 0-.39.346.93.93 0 0 0-.098.453v2.224a.93.93 0 0 0 .098.453c.083.16.248.29.39.346.286.113.49.082.758.084h1.508c.268-.002.472.029.758-.084a.801.801 0 0 0 .39-.346A.93.93 0 0 0 5 9.117V6.893a.93.93 0 0 0-.098-.453.801.801 0 0 0-.39-.346c-.286-.113-.49-.082-.758-.084H2.248zm.004 1h1.5c.17.002.19.003.25.008v1.974c-.06.004-.08.006-.25.008h-1.5A2.88 2.88 0 0 1 2 8.992V7.018c.06-.004.08-.006.25-.008zM2.246 1.01c-.268.002-.472-.029-.758.084a.801.801 0 0 0-.39.346.93.93 0 0 0-.098.453v2.224a.93.93 0 0 0 .098.453c.083.16.248.29.39.346.286.113.49.082.758.084h1.508c.268-.002.472.029.758-.084a.801.801 0 0 0 .39-.346A.93.93 0 0 0 5 4.117V1.893a.93.93 0 0 0-.098-.453.801.801 0 0 0-.39-.346c-.286-.113-.49-.082-.758-.084H2.248zm.004 1h1.5c.17.002.19.003.25.008v1.974c-.06.004-.08.006-.25.008h-1.5A2.88 2.88 0 0 1 2 3.992V2.018c.06-.004.08-.006.25-.008zM7.246 11.01c-.268.002-.472-.029-.758.084a.801.801 0 0 0-.39.346.93.93 0 0 0-.098.453v2.224a.93.93 0 0 0 .098.453c.083.16.248.29.39.346.286.113.49.082.758.084h1.508c.268-.002.472.029.758-.084a.801.801 0 0 0 .39-.346.93.93 0 0 0 .098-.453v-2.224a.93.93 0 0 0-.098-.453.801.801 0 0 0-.39-.346c-.286-.113-.49-.082-.758-.084H7.248zm.004 1h1.5c.17.002.19.003.25.008v1.974c-.06.004-.08.006-.25.008h-1.5a2.88 2.88 0 0 1-.25-.008v-1.974c.06-.004.08-.006.25-.008zM7.246 6.01c-.268.002-.472-.029-.758.084a.801.801 0 0 0-.39.346.93.93 0 0 0-.098.453v2.224a.93.93 0 0 0 .098.453c.083.16.248.29.39.346.286.113.49.082.758.084h1.508c.268-.002.472.029.758-.084a.801.801 0 0 0 .39-.346.93.93 0 0 0 .098-.453V6.893a.93.93 0 0 0-.098-.453.801.801 0 0 0-.39-.346c-.286-.113-.49-.082-.758-.084H7.248zm.004 1h1.5c.17.002.19.003.25.008v1.974c-.06.004-.08.006-.25.008h-1.5A2.88 2.88 0 0 1 7 8.992V7.018c.06-.004.08-.006.25-.008zM7.246 1.01c-.268.002-.472-.029-.758.084a.801.801 0 0 0-.39.346.93.93 0 0 0-.098.453v2.224a.93.93 0 0 0 .098.453c.083.16.248.29.39.346.286.113.49.082.758.084h1.508c.268-.002.472.029.758-.084a.801.801 0 0 0 .39-.346.93.93 0 0 0 .098-.453V1.893a.93.93 0 0 0-.098-.453.801.801 0 0 0-.39-.346c-.286-.113-.49-.082-.758-.084H7.248zm.004 1h1.5c.17.002.19.003.25.008v1.974c-.06.004-.08.006-.25.008h-1.5A2.88 2.88 0 0 1 7 3.992V2.018c.06-.004.08-.006.25-.008zM12.246 11.01c-.268.002-.472-.029-.758.084a.801.801 0 0 0-.39.346.93.93 0 0 0-.098.453v2.224a.93.93 0 0 0 .098.453c.083.16.248.29.39.346.286.113.49.082.758.084h1.508c.268-.002.472.029.758-.084a.801.801 0 0 0 .39-.346.93.93 0 0 0 .098-.453v-2.224a.93.93 0 0 0-.098-.453.801.801 0 0 0-.39-.346c-.286-.113-.49-.082-.758-.084h-1.506zm.004 1h1.5c.17.002.19.003.25.008v1.974c-.06.004-.08.006-.25.008h-1.5a2.88 2.88 0 0 1-.25-.008v-1.974c.06-.004.08-.006.25-.008zM12.246 6.01c-.268.002-.472-.029-.758.084a.801.801 0 0 0-.39.346.93.93 0 0 0-.098.453v2.224a.93.93 0 0 0 .098.453c.083.16.248.29.39.346.286.113.49.082.758.084h1.508c.268-.002.472.029.758-.084a.801.801 0 0 0 .39-.346.93.93 0 0 0 .098-.453V6.893a.93.93 0 0 0-.098-.453.801.801 0 0 0-.39-.346c-.286-.113-.49-.082-.758-.084h-1.506zm.004 1h1.5c.17.002.19.003.25.008v1.974c-.06.004-.08.006-.25.008h-1.5a2.88 2.88 0 0 1-.25-.008V7.018c.06-.004.08-.006.25-.008zM12.246 1.01c-.268.002-.472-.029-.758.084a.801.801 0 0 0-.39.346.93.93 0 0 0-.098.453v2.224a.93.93 0 0 0 .098.453c.083.16.248.29.39.346.286.113.49.082.758.084h1.508c.268-.002.472.029.758-.084a.801.801 0 0 0 .39-.346.93.93 0 0 0 .098-.453V1.893a.93.93 0 0 0-.098-.453.801.801 0 0 0-.39-.346c-.286-.113-.49-.082-.758-.084h-1.506zm.004 1h1.5c.17.002.19.003.25.008v1.974c-.06.004-.08.006-.25.008h-1.5a2.88 2.88 0 0 1-.25-.008V2.018c.06-.004.08-.006.25-.008z"/>
    </g>
</svg>
