<svg width="16" height="16" version="1.1" xmlns="http://www.w3.org/2000/svg">
 <defs>
  <style id="current-color-scheme" type="text/css">
   .ColorScheme-Text { color:#d3dae3; } .ColorScheme-Highlight { color:#5294e2; }
  </style>
 </defs>
    <g style="fill:currentColor" class="ColorScheme-Text">
        <path d="M4.994 1c-1.258.015-2.179-.03-2.931.385a1.88 1.88 0 0 0-.838.998C1.06 2.822 1 3.343 1 4v8.207l.147.147L3.793 15H11.006c1.258-.015 2.179.03 2.932-.385a1.88 1.88 0 0 0 .838-.998c.164-.438.224-.96.224-1.617V4c0-.658-.06-1.178-.225-1.617a1.88 1.88 0 0 0-.837-.998c-.753-.416-1.674-.37-2.932-.385H4.998zM5 2h6c1.259.015 2.09.06 2.455.262.184.101.287.213.385.472.097.26.16.674.16 1.266v8c0 .592-.063 1.006-.16 1.266-.098.26-.201.371-.385.472-.367.203-1.197.247-2.46.262H4.206L2 11.793V4c0-.592.063-1.006.16-1.266.098-.26.204-.371.387-.472C2.913 2.06 3.742 2.015 5 2z" />
        <path d="M4 9v5h2v-4h2v4h4V9z"/>
    </g>
</svg>
