<?xml version="1.0" encoding="UTF-8" standalone="no"?>
<svg
   xmlns:dc="http://purl.org/dc/elements/1.1/"
   xmlns:cc="http://creativecommons.org/ns#"
   xmlns:rdf="http://www.w3.org/1999/02/22-rdf-syntax-ns#"
   xmlns:svg="http://www.w3.org/2000/svg"
   xmlns="http://www.w3.org/2000/svg"
   xmlns:sodipodi="http://sodipodi.sourceforge.net/DTD/sodipodi-0.dtd"
   xmlns:inkscape="http://www.inkscape.org/namespaces/inkscape"
   viewBox="0 0 16 16"
   version="1.1"
   id="svg6"
   sodipodi:docname="document-open.svg"
   inkscape:version="0.92.5 (6c0c36ef5a, 2020-05-15, custom)">
  <metadata
     id="metadata10">
    <rdf:RDF>
      <cc:Work
         rdf:about="">
        <dc:format>image/svg+xml</dc:format>
        <dc:type
           rdf:resource="http://purl.org/dc/dcmitype/StillImage" />
      </cc:Work>
    </rdf:RDF>
  </metadata>
  <sodipodi:namedview
     pagecolor="#ffffff"
     bordercolor="#666666"
     borderopacity="1"
     objecttolerance="10"
     gridtolerance="10"
     guidetolerance="10"
     inkscape:pageopacity="0"
     inkscape:pageshadow="2"
     inkscape:window-width="1920"
     inkscape:window-height="1000"
     id="namedview8"
     showgrid="false"
     inkscape:zoom="14.75"
     inkscape:cx="5.631878"
     inkscape:cy="4.7269571"
     inkscape:window-x="0"
     inkscape:window-y="0"
     inkscape:window-maximized="1"
     inkscape:current-layer="svg6" />
  <defs
     id="defs3051">
    <style
       type="text/css"
       id="current-color-scheme">
      .ColorScheme-Text {
        color:#d3dae3;
      }
      </style>
    <style
       type="text/css"
       id="current-color-scheme-3">.ColorScheme-Text { color:#727272; } .ColorScheme-Highlight { color:#5294e2; }</style>
    <linearGradient
       gradientUnits="userSpaceOnUse"
       gradientTransform="matrix(1,0,0,1.1,-15.599,68.547)"
       y2="-54.196"
       y1="-43.254"
       x2="-.30109"
       x1="-15.961"
       id="linearGradient1064">
      <stop
         id="stop819"
         offset="0"
         stop-color="#ffc832" />
      <stop
         id="stop821"
         offset="1"
         stop-color="#ffdc6e" />
    </linearGradient>
    <linearGradient
       gradientUnits="userSpaceOnUse"
       gradientTransform="matrix(0.26458,0,0,0.26458,-12.7,64.557)"
       y2="-182.27"
       y1="-182.27"
       x2="-24.213"
       x1="-59.707"
       id="linearGradient1142">
      <stop
         id="stop824"
         offset="0"
         stop-color="#1496ff" />
      <stop
         id="stop826"
         offset="1"
         stop-color="#0a78ff" />
    </linearGradient>
    <linearGradient
       gradientUnits="userSpaceOnUse"
       y2="-160.88"
       y1="-185.88"
       x2="-56.875"
       x1="-56.875"
       id="linearGradient1150">
      <stop
         id="stop829"
         offset="0"
         stop-color="#0a82ff" />
      <stop
         id="stop831"
         offset="1"
         stop-color="#0564c8" />
    </linearGradient>
    <linearGradient
       gradientUnits="userSpaceOnUse"
       y2="-160.75"
       y1="-188"
       x2="-27.625"
       x1="-27.625"
       id="linearGradient1164">
      <stop
         id="stop834"
         offset="0"
         stop-color="#004bb9" />
      <stop
         id="stop836"
         offset="1"
         stop-color="#0546b4" />
    </linearGradient>
  </defs>
  <path
     style="color:#d3dae3;fill:currentColor;fill-opacity:1;stroke:none"
     d="m 20.88814,2 v 1 3 1 6 1 h 12 V 13 6 5 4 h -4.992187 l -2,-2 -0.0078,0.00781 V 2 h -4 z m 1,1 h 3.591797 l 1.001953,1 h -0.59375 v 0.00781 L 25.880328,4 l -2,2 H 21.88814 Z m 0,4 h 10 v 6 h -10 z"
     class="ColorScheme-Text"
     id="path4"
     inkscape:connector-curvature="0" />
  <g
     transform="matrix(0.94487653,0,0,0.94487653,30.489852,-5.837132)"
     id="g871">
    <path
       style="fill:#ffe55e;stroke-width:0.69373"
       inkscape:connector-curvature="0"
       d="m -23.801,12.098 h -7.9373 V 8.0963 c 0,-0.40184 0.29614,-0.72759 0.66144,-0.72759 h 5.6223 l 1.6536,1.4552 z"
       id="path843" />
    <g
       style="stroke-width:0.66145003"
       transform="matrix(1,0,0,1.1,-15.599,68.547)"
       id="g849">
      <path
         style="fill:#e19600"
         inkscape:connector-curvature="0"
         d="m -8.2026,-51.317 h -7.9373 v -3.6379 c 0,-0.36531 0.29614,-0.66144 0.66144,-0.66144 h 5.6223 l 1.6536,1.3229 z"
         id="path845" />
      <path
         style="opacity:0.2;fill:#ffffff"
         inkscape:connector-curvature="0"
         d="m -9.8562,-55.617 h -5.6223 c -0.36532,0 -0.66144,0.29612 -0.66144,0.66144 v 0.16536 c 0,-0.36532 0.29612,-0.66144 0.66144,-0.66144 h 5.6223 l 1.6536,1.3229 v -0.16536 z"
         id="path847" />
    </g>
    <path
       style="fill:url(#linearGradient1064);stroke-width:0.69373"
       inkscape:connector-curvature="0"
       d="m -16.526,8.8236 h -7.2759 l -1.6536,1.4552 h -5.6223 c -0.36531,0 -0.66144,0.32575 -0.66144,0.72759 v 9.4587 c 0,0.40184 0.29614,0.72759 0.66144,0.72759 h 14.552 c 0.36531,0 0.66145,-0.32575 0.66145,-0.72759 v -10.914 c 0,-0.40184 -0.29614,-0.72759 -0.66145,-0.72759 z"
       id="path851" />
    <path
       style="opacity:0.1;stroke-width:0.69373"
       inkscape:connector-curvature="0"
       d="m -16.526,21.011 h -14.552 c -0.36532,0 -0.66144,-0.32578 -0.66144,-0.72759 v 0.1819 c 0,0.40181 0.29612,0.72759 0.66144,0.72759 h 14.552 c 0.36532,0 0.66145,-0.32578 0.66145,-0.72759 v -0.1819 c 0,0.40181 -0.29612,0.72759 -0.66145,0.72759 z"
       id="path853" />
    <path
       style="fill:url(#linearGradient1142);stroke-width:0.66491002"
       inkscape:connector-curvature="0"
       d="m -19.106,14.892 c -0.1111,-0.14787 -0.26255,-0.24804 -0.44182,-0.24804 h -8.5068 c -0.17958,0 -0.3311,0.10078 -0.44234,0.24908 l 2.5161,3.1279 h 4.3578 z"
       id="path855" />
    <path
       style="opacity:0.2;fill:#ffffff;stroke-width:0.69373"
       inkscape:connector-curvature="0"
       d="m -16.526,8.8236 h -7.2759 l -1.6536,1.4552 h -5.6223 c -0.36532,0 -0.66144,0.32574 -0.66144,0.72759 v 0.1819 c 0,-0.40185 0.29612,-0.72759 0.66144,-0.72759 h 5.6223 l 1.6536,-1.4552 h 7.2759 c 0.36532,0 0.66145,0.32574 0.66145,0.72759 v -0.1819 c 0,-0.40185 -0.29612,-0.72759 -0.66145,-0.72759 z"
       id="path857" />
    <g
       transform="translate(-12.7,64.557)"
       id="g863">
      <path
         style="fill:url(#linearGradient1150);stroke-width:2.51309991"
         inkscape:connector-curvature="0"
         transform="scale(0.26458)"
         d="m -50.197,-175.89 -9.5098,-11.822 c -0.36526,0.48695 -0.625,1.1025 -0.625,1.8086 v 23.375 c 0,0.75939 0.51425,1.375 1.1484,1.375 h 7.8379 c 0.63419,0 1.1484,-0.61561 1.1484,-1.375 z"
         id="path859" />
      <path
         style="opacity:0.1;stroke-width:0.69841999"
         inkscape:connector-curvature="0"
         d="m -13.617,-42.819 h -2.0112 c -0.18512,0 -0.33521,-0.16289 -0.33521,-0.36379 v 0.1819 c 0,0.2009 0.15009,0.3638 0.33521,0.3638 h 2.0112 c 0.18512,0 0.33521,-0.16289 0.33521,-0.3638 v -0.1819 c 0,0.2009 -0.15009,0.36379 -0.33521,0.36379 z"
         id="path861" />
    </g>
    <g
       transform="translate(-12.7,64.557)"
       id="g869">
      <path
         style="fill:url(#linearGradient1164);stroke-width:2.51309991"
         inkscape:connector-curvature="0"
         transform="scale(0.26458)"
         d="m -24.213,-187.71 -9.5137,11.826 h 0.0039 v 13.361 c 0,0.75939 0.51425,1.375 1.1484,1.375 h 7.8398 c 0.63419,0 1.1465,-0.61561 1.1465,-1.375 v -23.375 c 0,-0.70742 -0.25887,-1.3252 -0.625,-1.8125 z"
         id="path865" />
      <path
         style="opacity:0.1;stroke-width:0.69841999"
         inkscape:connector-curvature="0"
         d="m -6.578,-42.819 h -2.0112 c -0.18512,0 -0.33521,-0.16289 -0.33521,-0.36379 v 0.1819 c 0,0.2009 0.15009,0.3638 0.33521,0.3638 h 2.0112 c 0.18512,0 0.33521,-0.16289 0.33521,-0.3638 v -0.1819 c 0,0.2009 -0.15009,0.36379 -0.33521,0.36379 z"
         id="path867" />
    </g>
  </g>
</svg>
