<svg height="16" width="16" xmlns="http://www.w3.org/2000/svg">
    <g fill="currentColor" color="#e1e1e1">
        <path d="M5 6v1H4v1h1v1h1V8h1V7H6V6zm5.5-.1a.6.6 0 0 0-.6.6.6.6 0 0 0 .6.6.6.6 0 0 0 .6-.6.6.6 0 0 0-.6-.6zm-1 1a.6.6 0 0 0-.6.6.6.6 0 0 0 .6.6.6.6 0 0 0 .6-.6.6.6 0 0 0-.6-.6zm2 0a.6.6 0 0 0-.6.6.6.6 0 0 0 .6.6.6.6 0 0 0 .6-.6.6.6 0 0 0-.6-.6zm-1 1a.6.6 0 0 0-.6.6.6.6 0 0 0 .6.6.6.6 0 0 0 .6-.6.6.6 0 0 0-.6-.6z"/>
        <path d="M4 4a2 4 0 0 0-2 4v2.5a1.5 1.5 0 0 0 2.56 1.06l.944-.943A1.5 1.5 0 0 0 6.5 11 1.5 1.5 0 0 0 8 9.5a1.5 1.5 0 0 0 2.498 1.12l.941.94A1.5 1.5 0 0 0 14 10.5V8a2 4 0 0 0-2-4zm0 1h8a1 3 0 0 1 1 3v2.5a.5.5 0 0 1-.854.354L10.293 9H10v.5a.5.5 0 0 1-1 0V9H7v.5a.5.5 0 0 1-1 0V9h-.293l-1.853 1.854A.5.5 0 0 1 3 10.5V8a1 3 0 0 1 1-3z"/>
    </g>
</svg>
