<?xml version="1.0" encoding="UTF-8" standalone="no"?>
<svg
   xmlns:dc="http://purl.org/dc/elements/1.1/"
   xmlns:cc="http://creativecommons.org/ns#"
   xmlns:rdf="http://www.w3.org/1999/02/22-rdf-syntax-ns#"
   xmlns:svg="http://www.w3.org/2000/svg"
   xmlns="http://www.w3.org/2000/svg"
   xmlns:xlink="http://www.w3.org/1999/xlink"
   xmlns:sodipodi="http://sodipodi.sourceforge.net/DTD/sodipodi-0.dtd"
   xmlns:inkscape="http://www.inkscape.org/namespaces/inkscape"
   inkscape:version="0.92.5 (6c0c36ef5a, 2020-05-15, custom)"
   sodipodi:docname="system-lock-screen.svg"
   id="svg18"
   version="1.1"
   height="32"
   width="32">
  <defs
     id="defs22">
    <linearGradient
       id="linearGradient4922"
       x1="70.011002"
       x2="115"
       y1="-117.64"
       y2="-117.64"
       gradientTransform="translate(-21.671,-25)"
       gradientUnits="userSpaceOnUse">
      <stop
         stop-color="#236eb9"
         offset="0"
         id="stop1550" />
      <stop
         stop-color="#32a5f0"
         offset="1"
         id="stop1552" />
    </linearGradient>
    <linearGradient
       id="linearGradient4928"
       x1="70.108002"
       x2="115"
       y1="-77.893997"
       y2="-77.893997"
       gradientTransform="translate(-21.671,-25)"
       gradientUnits="userSpaceOnUse">
      <stop
         style="stop-color:#1e3773;stop-opacity:1"
         stop-color="#19326e"
         offset="0"
         id="stop1565" />
      <stop
         stop-color="#285abe"
         offset="1"
         id="stop1567" />
    </linearGradient>
    <linearGradient
       id="linearGradient4926"
       x1="18.523001"
       x2="30.427"
       y1="-23.993999"
       y2="-23.993999"
       gradientTransform="matrix(3.7796,0,0,3.7796,-21.671,-25)"
       gradientUnits="userSpaceOnUse">
      <stop
         stop-color="#1e4b96"
         offset="0"
         id="stop1560" />
      <stop
         stop-color="#3278d7"
         offset="1"
         id="stop1562" />
    </linearGradient>
    <linearGradient
       id="linearGradient3789"
       x1="-6.9347"
       x2="-6.9347"
       y1="24.449"
       y2="16.119"
       gradientTransform="matrix(1.1111,0,0,1.1111,22.558,-8.8698)"
       gradientUnits="userSpaceOnUse">
      <stop
         stop-color="#2dc8f0"
         offset="0"
         id="stop839" />
      <stop
         stop-color="#50e6ff"
         offset="1"
         id="stop841" />
    </linearGradient>
    <linearGradient
       id="linearGradient3803"
       x1="-6.6145"
       x2="-6.6145"
       y1="4.5427"
       y2="14.287"
       gradientTransform="matrix(1.1111,0,0,1.1111,19.344,-0.79383)"
       gradientUnits="userSpaceOnUse">
      <stop
         stop-color="#2fc3fe"
         offset="0"
         id="stop844" />
      <stop
         stop-color="#23aef5"
         offset="1"
         id="stop846" />
    </linearGradient>
    <linearGradient
       id="linearGradient3811"
       x1="-9.8426"
       x2="-9.8426"
       y1="6.6145"
       y2="14.287"
       gradientTransform="matrix(1.1111,0,0,1.1111,19.344,-0.79383)"
       gradientUnits="userSpaceOnUse">
      <stop
         stop-color="#1ea7f1"
         offset="0"
         id="stop849" />
      <stop
         stop-color="#148dd0"
         offset="1"
         id="stop851" />
    </linearGradient>
    <linearGradient
       id="linearGradient3819"
       x1="-12.7"
       x2="-12.7"
       y1="8.7311"
       y2="14.287"
       gradientTransform="matrix(1.1111,0,0,1.1111,19.344,-0.79383)"
       gradientUnits="userSpaceOnUse">
      <stop
         stop-color="#0978e8"
         offset="0"
         id="stop854" />
      <stop
         stop-color="#0467cd"
         offset="1"
         id="stop856" />
    </linearGradient>
    <linearGradient
       id="linearGradient3827"
       x1="-15.61"
       x2="-15.61"
       y1="10.848"
       y2="14.287"
       gradientTransform="matrix(1.1111,0,0,1.1111,19.344,-0.79383)"
       gradientUnits="userSpaceOnUse">
      <stop
         stop-color="#0171ca"
         offset="0"
         id="stop859" />
      <stop
         stop-color="#005ba9"
         offset="1"
         id="stop861" />
    </linearGradient>
    <clipPath
       id="clipPath13429">
      <path
         d="m481 318h22v22h-22z"
         id="path907" />
    </clipPath>
    <clipPath
       id="clipPath13465">
      <path
         d="m507 318h22v22h-22z"
         id="path910" />
    </clipPath>
    <clipPath
       id="clipPath13501">
      <path
         d="m530 318h22v22h-22z"
         id="path913" />
    </clipPath>
    <clipPath
       id="clipPath13753">
      <path
         d="m672 1064c0-1.105 4.925-2 11-2s11 0.895 11 2-4.925 2-11 2-11-0.895-11-2"
         id="path916" />
    </clipPath>
    <clipPath
       id="clipPath13771">
      <path
         d="m660 1057h51v65.001h-51z"
         id="path919" />
    </clipPath>
    <clipPath
       id="clipPath14035">
      <path
         d="m659 517h53v18h-53z"
         id="path922" />
    </clipPath>
    <clipPath
       id="clipPath14127">
      <path
         d="m659 500h53v18h-53z"
         id="path925" />
    </clipPath>
    <clipPath
       id="clipPath14445">
      <path
         d="m648 112h73v60h-73z"
         id="path928" />
    </clipPath>
    <clipPath
       id="clipPath14609">
      <path
         d="m826 1056h59v60h-59z"
         id="path931" />
    </clipPath>
    <clipPath
       id="clipPath15305">
      <path
         d="m805 276h100v100h-100z"
         id="path934" />
    </clipPath>
    <clipPath
       id="clipPath15341">
      <path
         d="m145 1063.8h74.152v45.21h-74.152z"
         id="path937" />
    </clipPath>
    <clipPath
       id="clipPath15715">
      <path
         d="m151 667h57v57h-57z"
         id="path940" />
    </clipPath>
    <clipPath
       id="clipPath15807">
      <path
         d="m154 697h51v51h-51z"
         id="path943" />
    </clipPath>
    <clipPath
       id="clipPath16001">
      <path
         d="m500.04 864.45h36.012v67.52h-36.012z"
         id="path946" />
    </clipPath>
    <clipPath
       id="clipPath16093">
      <path
         d="m836 870.54h47v55.539h-47z"
         id="path949" />
    </clipPath>
    <clipPath
       id="clipPath16477">
      <path
         d="m318.03 702.35h62.848v37.991h-62.848z"
         id="path952" />
    </clipPath>
    <clipPath
       id="clipPath16579">
      <path
         d="m485.03 133.35h62.847v37.991h-62.847z"
         id="path955" />
    </clipPath>
    <clipPath
       id="clipPath16709">
      <path
         d="m493.37 677.93h45.643v68.067h-45.643z"
         id="path958" />
    </clipPath>
    <clipPath
       id="clipPath24218">
      <path
         d="m144.34 1018.2h71.467v78h-71.467z"
         id="path961" />
    </clipPath>
    <clipPath
       id="clipPath24382">
      <path
         d="m293.21 1068.6 66.323-38.292 36.047 62.435-66.323 38.292z"
         id="path964" />
    </clipPath>
    <clipPath
       id="clipPath24650">
      <path
         d="m488.86 1054.5h10v10.706h-10z"
         id="path967" />
    </clipPath>
    <clipPath
       id="clipPath24700">
      <path
         d="m508 1066.8h10.001v10.705h-10.001z"
         id="path970" />
    </clipPath>
    <clipPath
       id="clipPath24750">
      <path
         d="m525 1045.8h10v10.706h-10z"
         id="path973" />
    </clipPath>
    <clipPath
       id="clipPath24864">
      <path
         d="m836 1043.7h25.5v31.5h-25.5z"
         id="path976" />
    </clipPath>
    <clipPath
       id="clipPath24896">
      <path
         d="m838 1062.2h24v24h-24z"
         id="path979" />
    </clipPath>
    <clipPath
       id="clipPath25070">
      <path
         d="m134 489.24h7v6h-7z"
         id="path982" />
    </clipPath>
    <clipPath
       id="clipPath25100">
      <path
         d="m216 489.24h7v6h-7z"
         id="path985" />
    </clipPath>
    <clipPath
       id="clipPath25502">
      <path
         d="m838 477.24h22v22h-22z"
         id="path988" />
    </clipPath>
    <clipPath
       id="clipPath25686">
      <path
         d="m704 1061.2h25v25h-25z"
         id="path991" />
    </clipPath>
    <clipPath
       id="clipPath25788">
      <path
         d="m663.04 1078.6-1.808-3.514-21.07-47.453c13.336-18.439 48.336-26.938 73.836-3.439 0.842 0 6.476 6.246 6 7l-18.386 25.895c-0.483 0.765-1.453 0.946-2.177 0.431l-15.505-11.011c-0.359-0.255-0.847-0.153-1.07 0.238l-18.272 31.869c-0.218 0.384-0.502 0.578-0.782 0.578-0.282 0-0.561-0.197-0.766-0.594"
         id="path994" />
    </clipPath>
    <clipPath
       id="clipPath26420">
      <path
         d="m127 820.24h100v100h-100z"
         id="path997" />
    </clipPath>
    <clipPath
       id="clipPath26860">
      <path
         d="m809 680.24c0-22.092 17.908-40 40-40s40 17.908 40 40c0 22.091-17.908 40-40 40s-40-17.909-40-40"
         id="path1000" />
    </clipPath>
    <clipPath
       id="clipPath27506">
      <path
         d="m658 469.24h44v45h-44z"
         id="path1003" />
    </clipPath>
    <clipPath
       id="clipPath27772">
      <path
         d="m651 271.24h58v58h-58z"
         id="path1006" />
    </clipPath>
    <clipPath
       id="clipPath27864">
      <path
         d="m662 307.24h38v8h-38z"
         id="path1009" />
    </clipPath>
    <clipPath
       id="clipPath28028">
      <path
         d="m858.98 137.24c0.013-0.101 0.021-0.203 0.021-0.307v-6.693h15.75c1.237 0 2.25-1.013 2.25-2.25v-11.25l-27-4.5-27 4.5v-2.25l27-4.5 27 4.5v-27c0-1.237-1.013-2.25-2.25-2.25h-49.5c-1.237 0-2.25 1.013-2.25 2.25v-4.25h54v54zm-35.979 0v-9.25c0 1.237 1.013 2.25 2.25 2.25h15.75v6.693c0 0.104 7e-3 0.207 0.02 0.307zm22.5-7h9v4.5h-9zm1.125-9c-0.62 0-1.125-0.506-1.125-1.125v-2.25c0-0.619 0.505-1.125 1.125-1.125h6.75c0.619 0 1.125 0.506 1.125 1.125v2.25c0 0.619-0.506 1.125-1.125 1.125z"
         id="path1012" />
    </clipPath>
    <clipPath
       id="clipPath28200">
      <path
         d="m531.27 136.24c6.325-2.29 10.727-8.277 10.727-15.484 0-11.316-10.2-20.563-25.65-34.575l-4.35-3.941-4.35 3.941c-15.45 14.012-25.65 23.259-25.65 34.575v-39.516h60v55zm-26.983 0c2.995-1.052 5.686-2.883 7.71-5.25 2.024 2.367 4.715 4.198 7.71 5.25zm-22.29 0v-15.484c0 7.207 4.402 13.194 10.727 15.484z"
         id="path1015" />
    </clipPath>
    <clipPath
       id="clipPath28364">
      <path
         d="m648 79.241h64v64h-64z"
         id="path1018" />
    </clipPath>
    <clipPath
       id="clipPath28984">
      <path
         d="m500 691.74c0-3.037 2.463-5.5 5.5-5.5s5.5 2.463 5.5 5.5-2.463 5.5-5.5 5.5-5.5-2.463-5.5-5.5"
         id="path1021" />
    </clipPath>
    <clipPath
       id="clipPath29012">
      <path
         d="m500 669.74c0-3.037 2.463-5.5 5.5-5.5s5.5 2.463 5.5 5.5c0 3.038-2.463 5.5-5.5 5.5s-5.5-2.462-5.5-5.5"
         id="path1024" />
    </clipPath>
    <clipPath
       id="clipPath29040">
      <path
         d="m494 680.74c0-3.037 2.462-5.5 5.5-5.5s5.5 2.463 5.5 5.5c0 3.038-2.462 5.5-5.5 5.5s-5.5-2.462-5.5-5.5"
         id="path1027" />
    </clipPath>
    <clipPath
       id="clipPath29068">
      <path
         d="m513 691.74c0-3.037 2.463-5.5 5.5-5.5s5.5 2.463 5.5 5.5-2.463 5.5-5.5 5.5-5.5-2.463-5.5-5.5"
         id="path1030" />
    </clipPath>
    <clipPath
       id="clipPath29096">
      <path
         d="m513 669.74c0-3.037 2.463-5.5 5.5-5.5s5.5 2.463 5.5 5.5c0 3.038-2.463 5.5-5.5 5.5s-5.5-2.462-5.5-5.5"
         id="path1033" />
    </clipPath>
    <clipPath
       id="clipPath29124">
      <path
         d="m507 680.74c0-3.037 2.463-5.5 5.5-5.5s5.5 2.463 5.5 5.5c0 3.038-2.463 5.5-5.5 5.5s-5.5-2.462-5.5-5.5"
         id="path1036" />
    </clipPath>
    <clipPath
       id="clipPath29152">
      <path
         d="m520 680.74c0-3.037 2.463-5.5 5.5-5.5s5.5 2.463 5.5 5.5c0 3.038-2.463 5.5-5.5 5.5s-5.5-2.462-5.5-5.5"
         id="path1039" />
    </clipPath>
    <clipPath
       id="clipPath29252">
      <path
         d="m321 322.24c-4.97 0-9-4.029-9-9 0-4.97 4.03-9 9-9h45c4.971 0 9 4.03 9 9 0 4.971-4.029 9-9 9z"
         id="path1042" />
    </clipPath>
    <clipPath
       id="clipPath29280">
      <path
         d="m322 297.24c-4.971 0-9-4.029-9-9 0-4.97 4.029-9 9-9h45c4.971 0 9 4.03 9 9 0 4.971-4.029 9-9 9z"
         id="path1045" />
    </clipPath>
    <clipPath
       id="clipPath29400">
      <path
         d="m155 83.24h44v53h-44z"
         id="path1048" />
    </clipPath>
    <clipPath
       id="clipPath13429-6">
      <path
         d="m481 318h22v22h-22z"
         id="path1051" />
    </clipPath>
    <clipPath
       id="clipPath13465-0">
      <path
         d="m507 318h22v22h-22z"
         id="path1054" />
    </clipPath>
    <clipPath
       id="clipPath13501-6">
      <path
         d="m530 318h22v22h-22z"
         id="path1057" />
    </clipPath>
    <clipPath
       id="clipPath13753-2">
      <path
         d="m672 1064c0-1.105 4.925-2 11-2s11 0.895 11 2-4.925 2-11 2-11-0.895-11-2"
         id="path1060" />
    </clipPath>
    <clipPath
       id="clipPath13771-6">
      <path
         d="m660 1057h51v65.001h-51z"
         id="path1063" />
    </clipPath>
    <clipPath
       id="clipPath14035-1">
      <path
         d="m659 517h53v18h-53z"
         id="path1066" />
    </clipPath>
    <clipPath
       id="clipPath14127-8">
      <path
         d="m659 500h53v18h-53z"
         id="path1069" />
    </clipPath>
    <clipPath
       id="clipPath14445-7">
      <path
         d="m648 112h73v60h-73z"
         id="path1072" />
    </clipPath>
    <clipPath
       id="clipPath14609-9">
      <path
         d="m826 1056h59v60h-59z"
         id="path1075" />
    </clipPath>
    <clipPath
       id="clipPath15305-2">
      <path
         d="m805 276h100v100h-100z"
         id="path1078" />
    </clipPath>
    <clipPath
       id="clipPath15341-0">
      <path
         d="m145 1063.8h74.152v45.21h-74.152z"
         id="path1081" />
    </clipPath>
    <clipPath
       id="clipPath15715-2">
      <path
         d="m151 667h57v57h-57z"
         id="path1084" />
    </clipPath>
    <clipPath
       id="clipPath15807-3">
      <path
         d="m154 697h51v51h-51z"
         id="path1087" />
    </clipPath>
    <clipPath
       id="clipPath16001-7">
      <path
         d="m500.04 864.45h36.012v67.52h-36.012z"
         id="path1090" />
    </clipPath>
    <clipPath
       id="clipPath16093-5">
      <path
         d="m836 870.54h47v55.539h-47z"
         id="path1093" />
    </clipPath>
    <clipPath
       id="clipPath16477-9">
      <path
         d="m318.03 702.35h62.848v37.991h-62.848z"
         id="path1096" />
    </clipPath>
    <clipPath
       id="clipPath16579-2">
      <path
         d="m485.03 133.35h62.847v37.991h-62.847z"
         id="path1099" />
    </clipPath>
    <clipPath
       id="clipPath16709-2">
      <path
         d="m493.37 677.93h45.643v68.067h-45.643z"
         id="path1102" />
    </clipPath>
    <clipPath
       id="clipPath24218-8">
      <path
         d="m144.34 1018.2h71.467v78h-71.467z"
         id="path1105" />
    </clipPath>
    <clipPath
       id="clipPath24382-9">
      <path
         d="m293.21 1068.6 66.323-38.292 36.047 62.435-66.323 38.292z"
         id="path1108" />
    </clipPath>
    <clipPath
       id="clipPath24650-7">
      <path
         d="m488.86 1054.5h10v10.706h-10z"
         id="path1111" />
    </clipPath>
    <clipPath
       id="clipPath24700-3">
      <path
         d="m508 1066.8h10.001v10.705h-10.001z"
         id="path1114" />
    </clipPath>
    <clipPath
       id="clipPath24750-6">
      <path
         d="m525 1045.8h10v10.706h-10z"
         id="path1117" />
    </clipPath>
    <clipPath
       id="clipPath24864-1">
      <path
         d="m836 1043.7h25.5v31.5h-25.5z"
         id="path1120" />
    </clipPath>
    <clipPath
       id="clipPath24896-2">
      <path
         d="m838 1062.2h24v24h-24z"
         id="path1123" />
    </clipPath>
    <clipPath
       id="clipPath25070-9">
      <path
         d="m134 489.24h7v6h-7z"
         id="path1126" />
    </clipPath>
    <clipPath
       id="clipPath25100-3">
      <path
         d="m216 489.24h7v6h-7z"
         id="path1129" />
    </clipPath>
    <clipPath
       id="clipPath25502-1">
      <path
         d="m838 477.24h22v22h-22z"
         id="path1132" />
    </clipPath>
    <clipPath
       id="clipPath25686-9">
      <path
         d="m704 1061.2h25v25h-25z"
         id="path1135" />
    </clipPath>
    <clipPath
       id="clipPath25788-4">
      <path
         d="m663.04 1078.6-1.808-3.514-21.07-47.453c13.336-18.439 48.336-26.938 73.836-3.439 0.842 0 6.476 6.246 6 7l-18.386 25.895c-0.483 0.765-1.453 0.946-2.177 0.431l-15.505-11.011c-0.359-0.255-0.847-0.153-1.07 0.238l-18.272 31.869c-0.218 0.384-0.502 0.578-0.782 0.578-0.282 0-0.561-0.197-0.766-0.594"
         id="path1138" />
    </clipPath>
    <clipPath
       id="clipPath26420-7">
      <path
         d="m127 820.24h100v100h-100z"
         id="path1141" />
    </clipPath>
    <clipPath
       id="clipPath26860-8">
      <path
         d="m809 680.24c0-22.092 17.908-40 40-40s40 17.908 40 40c0 22.091-17.908 40-40 40s-40-17.909-40-40"
         id="path1144" />
    </clipPath>
    <clipPath
       id="clipPath27506-4">
      <path
         d="m658 469.24h44v45h-44z"
         id="path1147" />
    </clipPath>
    <clipPath
       id="clipPath27772-5">
      <path
         d="m651 271.24h58v58h-58z"
         id="path1150" />
    </clipPath>
    <clipPath
       id="clipPath27864-0">
      <path
         d="m662 307.24h38v8h-38z"
         id="path1153" />
    </clipPath>
    <clipPath
       id="clipPath28028-3">
      <path
         d="m858.98 137.24c0.013-0.101 0.021-0.203 0.021-0.307v-6.693h15.75c1.237 0 2.25-1.013 2.25-2.25v-11.25l-27-4.5-27 4.5v-2.25l27-4.5 27 4.5v-27c0-1.237-1.013-2.25-2.25-2.25h-49.5c-1.237 0-2.25 1.013-2.25 2.25v-4.25h54v54zm-35.979 0v-9.25c0 1.237 1.013 2.25 2.25 2.25h15.75v6.693c0 0.104 7e-3 0.207 0.02 0.307zm22.5-7h9v4.5h-9zm1.125-9c-0.62 0-1.125-0.506-1.125-1.125v-2.25c0-0.619 0.505-1.125 1.125-1.125h6.75c0.619 0 1.125 0.506 1.125 1.125v2.25c0 0.619-0.506 1.125-1.125 1.125z"
         id="path1156" />
    </clipPath>
    <clipPath
       id="clipPath28200-6">
      <path
         d="m531.27 136.24c6.325-2.29 10.727-8.277 10.727-15.484 0-11.316-10.2-20.563-25.65-34.575l-4.35-3.941-4.35 3.941c-15.45 14.012-25.65 23.259-25.65 34.575v-39.516h60v55zm-26.983 0c2.995-1.052 5.686-2.883 7.71-5.25 2.024 2.367 4.715 4.198 7.71 5.25zm-22.29 0v-15.484c0 7.207 4.402 13.194 10.727 15.484z"
         id="path1159" />
    </clipPath>
    <clipPath
       id="clipPath28364-1">
      <path
         d="m648 79.241h64v64h-64z"
         id="path1162" />
    </clipPath>
    <clipPath
       id="clipPath28984-0">
      <path
         d="m500 691.74c0-3.037 2.463-5.5 5.5-5.5s5.5 2.463 5.5 5.5-2.463 5.5-5.5 5.5-5.5-2.463-5.5-5.5"
         id="path1165" />
    </clipPath>
    <clipPath
       id="clipPath29012-6">
      <path
         d="m500 669.74c0-3.037 2.463-5.5 5.5-5.5s5.5 2.463 5.5 5.5c0 3.038-2.463 5.5-5.5 5.5s-5.5-2.462-5.5-5.5"
         id="path1168" />
    </clipPath>
    <clipPath
       id="clipPath29040-3">
      <path
         d="m494 680.74c0-3.037 2.462-5.5 5.5-5.5s5.5 2.463 5.5 5.5c0 3.038-2.462 5.5-5.5 5.5s-5.5-2.462-5.5-5.5"
         id="path1171" />
    </clipPath>
    <clipPath
       id="clipPath29068-2">
      <path
         d="m513 691.74c0-3.037 2.463-5.5 5.5-5.5s5.5 2.463 5.5 5.5-2.463 5.5-5.5 5.5-5.5-2.463-5.5-5.5"
         id="path1174" />
    </clipPath>
    <clipPath
       id="clipPath29096-0">
      <path
         d="m513 669.74c0-3.037 2.463-5.5 5.5-5.5s5.5 2.463 5.5 5.5c0 3.038-2.463 5.5-5.5 5.5s-5.5-2.462-5.5-5.5"
         id="path1177" />
    </clipPath>
    <clipPath
       id="clipPath29124-6">
      <path
         d="m507 680.74c0-3.037 2.463-5.5 5.5-5.5s5.5 2.463 5.5 5.5c0 3.038-2.463 5.5-5.5 5.5s-5.5-2.462-5.5-5.5"
         id="path1180" />
    </clipPath>
    <clipPath
       id="clipPath29152-1">
      <path
         d="m520 680.74c0-3.037 2.463-5.5 5.5-5.5s5.5 2.463 5.5 5.5c0 3.038-2.463 5.5-5.5 5.5s-5.5-2.462-5.5-5.5"
         id="path1183" />
    </clipPath>
    <clipPath
       id="clipPath29252-5">
      <path
         d="m321 322.24c-4.97 0-9-4.029-9-9 0-4.97 4.03-9 9-9h45c4.971 0 9 4.03 9 9 0 4.971-4.029 9-9 9z"
         id="path1186" />
    </clipPath>
    <clipPath
       id="clipPath29280-5">
      <path
         d="m322 297.24c-4.971 0-9-4.029-9-9 0-4.97 4.029-9 9-9h45c4.971 0 9 4.03 9 9 0 4.971-4.029 9-9 9z"
         id="path1189" />
    </clipPath>
    <clipPath
       id="clipPath29400-4">
      <path
         d="m155 83.24h44v53h-44z"
         id="path1192" />
    </clipPath>
    <clipPath
       id="clipPath13429-3">
      <path
         d="m481 318h22v22h-22z"
         id="path1195" />
    </clipPath>
    <clipPath
       id="clipPath13465-6">
      <path
         d="m507 318h22v22h-22z"
         id="path1198" />
    </clipPath>
    <clipPath
       id="clipPath13501-7">
      <path
         d="m530 318h22v22h-22z"
         id="path1201" />
    </clipPath>
    <clipPath
       id="clipPath13753-5">
      <path
         d="m672 1064c0-1.105 4.925-2 11-2s11 0.895 11 2-4.925 2-11 2-11-0.895-11-2"
         id="path1204" />
    </clipPath>
    <clipPath
       id="clipPath13771-3">
      <path
         d="m660 1057h51v65.001h-51z"
         id="path1207" />
    </clipPath>
    <clipPath
       id="clipPath14035-5">
      <path
         d="m659 517h53v18h-53z"
         id="path1210" />
    </clipPath>
    <clipPath
       id="clipPath14127-6">
      <path
         d="m659 500h53v18h-53z"
         id="path1213" />
    </clipPath>
    <clipPath
       id="clipPath14445-2">
      <path
         d="m648 112h73v60h-73z"
         id="path1216" />
    </clipPath>
    <clipPath
       id="clipPath14609-91">
      <path
         d="m826 1056h59v60h-59z"
         id="path1219" />
    </clipPath>
    <clipPath
       id="clipPath15305-27">
      <path
         d="m805 276h100v100h-100z"
         id="path1222" />
    </clipPath>
    <clipPath
       id="clipPath15341-09">
      <path
         d="m145 1063.8h74.152v45.21h-74.152z"
         id="path1225" />
    </clipPath>
    <clipPath
       id="clipPath15715-3">
      <path
         d="m151 667h57v57h-57z"
         id="path1228" />
    </clipPath>
    <clipPath
       id="clipPath15807-6">
      <path
         d="m154 697h51v51h-51z"
         id="path1231" />
    </clipPath>
    <clipPath
       id="clipPath16001-0">
      <path
         d="m500.04 864.45h36.012v67.52h-36.012z"
         id="path1234" />
    </clipPath>
    <clipPath
       id="clipPath16093-6">
      <path
         d="m836 870.54h47v55.539h-47z"
         id="path1237" />
    </clipPath>
    <clipPath
       id="clipPath16477-2">
      <path
         d="m318.03 702.35h62.848v37.991h-62.848z"
         id="path1240" />
    </clipPath>
    <clipPath
       id="clipPath16579-6">
      <path
         d="m485.03 133.35h62.847v37.991h-62.847z"
         id="path1243" />
    </clipPath>
    <clipPath
       id="clipPath16709-1">
      <path
         d="m493.37 677.93h45.643v68.067h-45.643z"
         id="path1246" />
    </clipPath>
    <clipPath
       id="clipPath24218-87">
      <path
         d="m144.34 1018.2h71.467v78h-71.467z"
         id="path1249" />
    </clipPath>
    <clipPath
       id="clipPath24382-92">
      <path
         d="m293.21 1068.6 66.323-38.292 36.047 62.435-66.323 38.292z"
         id="path1252" />
    </clipPath>
    <clipPath
       id="clipPath24650-0">
      <path
         d="m488.86 1054.5h10v10.706h-10z"
         id="path1255" />
    </clipPath>
    <clipPath
       id="clipPath24700-2">
      <path
         d="m508 1066.8h10.001v10.705h-10.001z"
         id="path1258" />
    </clipPath>
    <clipPath
       id="clipPath24750-3">
      <path
         d="m525 1045.8h10v10.706h-10z"
         id="path1261" />
    </clipPath>
    <clipPath
       id="clipPath24864-7">
      <path
         d="m836 1043.7h25.5v31.5h-25.5z"
         id="path1264" />
    </clipPath>
    <clipPath
       id="clipPath24896-5">
      <path
         d="m838 1062.2h24v24h-24z"
         id="path1267" />
    </clipPath>
    <clipPath
       id="clipPath25070-92">
      <path
         d="m134 489.24h7v6h-7z"
         id="path1270" />
    </clipPath>
    <clipPath
       id="clipPath25100-2">
      <path
         d="m216 489.24h7v6h-7z"
         id="path1273" />
    </clipPath>
    <clipPath
       id="clipPath25502-8">
      <path
         d="m838 477.24h22v22h-22z"
         id="path1276" />
    </clipPath>
    <clipPath
       id="clipPath25686-97">
      <path
         d="m704 1061.2h25v25h-25z"
         id="path1279" />
    </clipPath>
    <clipPath
       id="clipPath25788-3">
      <path
         d="m663.04 1078.6-1.808-3.514-21.07-47.453c13.336-18.439 48.336-26.938 73.836-3.439 0.842 0 6.476 6.246 6 7l-18.386 25.895c-0.483 0.765-1.453 0.946-2.177 0.431l-15.505-11.011c-0.359-0.255-0.847-0.153-1.07 0.238l-18.272 31.869c-0.218 0.384-0.502 0.578-0.782 0.578-0.282 0-0.561-0.197-0.766-0.594"
         id="path1282" />
    </clipPath>
    <clipPath
       id="clipPath26420-6">
      <path
         d="m127 820.24h100v100h-100z"
         id="path1285" />
    </clipPath>
    <clipPath
       id="clipPath26860-1">
      <path
         d="m809 680.24c0-22.092 17.908-40 40-40s40 17.908 40 40c0 22.091-17.908 40-40 40s-40-17.909-40-40"
         id="path1288" />
    </clipPath>
    <clipPath
       id="clipPath27506-2">
      <path
         d="m658 469.24h44v45h-44z"
         id="path1291" />
    </clipPath>
    <clipPath
       id="clipPath27772-9">
      <path
         d="m651 271.24h58v58h-58z"
         id="path1294" />
    </clipPath>
    <clipPath
       id="clipPath27864-3">
      <path
         d="m662 307.24h38v8h-38z"
         id="path1297" />
    </clipPath>
    <clipPath
       id="clipPath28028-1">
      <path
         d="m858.98 137.24c0.013-0.101 0.021-0.203 0.021-0.307v-6.693h15.75c1.237 0 2.25-1.013 2.25-2.25v-11.25l-27-4.5-27 4.5v-2.25l27-4.5 27 4.5v-27c0-1.237-1.013-2.25-2.25-2.25h-49.5c-1.237 0-2.25 1.013-2.25 2.25v-4.25h54v54zm-35.979 0v-9.25c0 1.237 1.013 2.25 2.25 2.25h15.75v6.693c0 0.104 7e-3 0.207 0.02 0.307zm22.5-7h9v4.5h-9zm1.125-9c-0.62 0-1.125-0.506-1.125-1.125v-2.25c0-0.619 0.505-1.125 1.125-1.125h6.75c0.619 0 1.125 0.506 1.125 1.125v2.25c0 0.619-0.506 1.125-1.125 1.125z"
         id="path1300" />
    </clipPath>
    <clipPath
       id="clipPath28200-9">
      <path
         d="m531.27 136.24c6.325-2.29 10.727-8.277 10.727-15.484 0-11.316-10.2-20.563-25.65-34.575l-4.35-3.941-4.35 3.941c-15.45 14.012-25.65 23.259-25.65 34.575v-39.516h60v55zm-26.983 0c2.995-1.052 5.686-2.883 7.71-5.25 2.024 2.367 4.715 4.198 7.71 5.25zm-22.29 0v-15.484c0 7.207 4.402 13.194 10.727 15.484z"
         id="path1303" />
    </clipPath>
    <clipPath
       id="clipPath28364-4">
      <path
         d="m648 79.241h64v64h-64z"
         id="path1306" />
    </clipPath>
    <clipPath
       id="clipPath28984-7">
      <path
         d="m500 691.74c0-3.037 2.463-5.5 5.5-5.5s5.5 2.463 5.5 5.5-2.463 5.5-5.5 5.5-5.5-2.463-5.5-5.5"
         id="path1309" />
    </clipPath>
    <clipPath
       id="clipPath29012-8">
      <path
         d="m500 669.74c0-3.037 2.463-5.5 5.5-5.5s5.5 2.463 5.5 5.5c0 3.038-2.463 5.5-5.5 5.5s-5.5-2.462-5.5-5.5"
         id="path1312" />
    </clipPath>
    <clipPath
       id="clipPath29040-4">
      <path
         d="m494 680.74c0-3.037 2.462-5.5 5.5-5.5s5.5 2.463 5.5 5.5c0 3.038-2.462 5.5-5.5 5.5s-5.5-2.462-5.5-5.5"
         id="path1315" />
    </clipPath>
    <clipPath
       id="clipPath29068-5">
      <path
         d="m513 691.74c0-3.037 2.463-5.5 5.5-5.5s5.5 2.463 5.5 5.5-2.463 5.5-5.5 5.5-5.5-2.463-5.5-5.5"
         id="path1318" />
    </clipPath>
    <clipPath
       id="clipPath29096-03">
      <path
         d="m513 669.74c0-3.037 2.463-5.5 5.5-5.5s5.5 2.463 5.5 5.5c0 3.038-2.463 5.5-5.5 5.5s-5.5-2.462-5.5-5.5"
         id="path1321" />
    </clipPath>
    <clipPath
       id="clipPath29124-61">
      <path
         d="m507 680.74c0-3.037 2.463-5.5 5.5-5.5s5.5 2.463 5.5 5.5c0 3.038-2.463 5.5-5.5 5.5s-5.5-2.462-5.5-5.5"
         id="path1324" />
    </clipPath>
    <clipPath
       id="clipPath29152-0">
      <path
         d="m520 680.74c0-3.037 2.463-5.5 5.5-5.5s5.5 2.463 5.5 5.5c0 3.038-2.463 5.5-5.5 5.5s-5.5-2.462-5.5-5.5"
         id="path1327" />
    </clipPath>
    <clipPath
       id="clipPath29252-6">
      <path
         d="m321 322.24c-4.97 0-9-4.029-9-9 0-4.97 4.03-9 9-9h45c4.971 0 9 4.03 9 9 0 4.971-4.029 9-9 9z"
         id="path1330" />
    </clipPath>
    <clipPath
       id="clipPath29280-3">
      <path
         d="m322 297.24c-4.971 0-9-4.029-9-9 0-4.97 4.029-9 9-9h45c4.971 0 9 4.03 9 9 0 4.971-4.029 9-9 9z"
         id="path1333" />
    </clipPath>
    <clipPath
       id="clipPath29400-2">
      <path
         d="m155 83.24h44v53h-44z"
         id="path1336" />
    </clipPath>
    <clipPath
       id="clipPath13429-6-0">
      <path
         d="m481 318h22v22h-22z"
         id="path1339" />
    </clipPath>
    <clipPath
       id="clipPath13465-0-6">
      <path
         d="m507 318h22v22h-22z"
         id="path1342" />
    </clipPath>
    <clipPath
       id="clipPath13501-6-1">
      <path
         d="m530 318h22v22h-22z"
         id="path1345" />
    </clipPath>
    <clipPath
       id="clipPath13753-2-5">
      <path
         d="m672 1064c0-1.105 4.925-2 11-2s11 0.895 11 2-4.925 2-11 2-11-0.895-11-2"
         id="path1348" />
    </clipPath>
    <clipPath
       id="clipPath13771-6-5">
      <path
         d="m660 1057h51v65.001h-51z"
         id="path1351" />
    </clipPath>
    <clipPath
       id="clipPath14035-1-4">
      <path
         d="m659 517h53v18h-53z"
         id="path1354" />
    </clipPath>
    <clipPath
       id="clipPath14127-8-7">
      <path
         d="m659 500h53v18h-53z"
         id="path1357" />
    </clipPath>
    <clipPath
       id="clipPath14445-7-6">
      <path
         d="m648 112h73v60h-73z"
         id="path1360" />
    </clipPath>
    <clipPath
       id="clipPath14609-9-5">
      <path
         d="m826 1056h59v60h-59z"
         id="path1363" />
    </clipPath>
    <clipPath
       id="clipPath15305-2-6">
      <path
         d="m805 276h100v100h-100z"
         id="path1366" />
    </clipPath>
    <clipPath
       id="clipPath15341-0-9">
      <path
         d="m145 1063.8h74.152v45.21h-74.152z"
         id="path1369" />
    </clipPath>
    <clipPath
       id="clipPath15715-2-3">
      <path
         d="m151 667h57v57h-57z"
         id="path1372" />
    </clipPath>
    <clipPath
       id="clipPath15807-3-7">
      <path
         d="m154 697h51v51h-51z"
         id="path1375" />
    </clipPath>
    <clipPath
       id="clipPath16001-7-4">
      <path
         d="m500.04 864.45h36.012v67.52h-36.012z"
         id="path1378" />
    </clipPath>
    <clipPath
       id="clipPath16093-5-5">
      <path
         d="m836 870.54h47v55.539h-47z"
         id="path1381" />
    </clipPath>
    <clipPath
       id="clipPath16477-9-2">
      <path
         d="m318.03 702.35h62.848v37.991h-62.848z"
         id="path1384" />
    </clipPath>
    <clipPath
       id="clipPath16579-2-5">
      <path
         d="m485.03 133.35h62.847v37.991h-62.847z"
         id="path1387" />
    </clipPath>
    <clipPath
       id="clipPath16709-2-4">
      <path
         d="m493.37 677.93h45.643v68.067h-45.643z"
         id="path1390" />
    </clipPath>
    <clipPath
       id="clipPath24218-8-7">
      <path
         d="m144.34 1018.2h71.467v78h-71.467z"
         id="path1393" />
    </clipPath>
    <clipPath
       id="clipPath24382-9-4">
      <path
         d="m293.21 1068.6 66.323-38.292 36.047 62.435-66.323 38.292z"
         id="path1396" />
    </clipPath>
    <clipPath
       id="clipPath24650-7-4">
      <path
         d="m488.86 1054.5h10v10.706h-10z"
         id="path1399" />
    </clipPath>
    <clipPath
       id="clipPath24700-3-3">
      <path
         d="m508 1066.8h10.001v10.705h-10.001z"
         id="path1402" />
    </clipPath>
    <clipPath
       id="clipPath24750-6-0">
      <path
         d="m525 1045.8h10v10.706h-10z"
         id="path1405" />
    </clipPath>
    <clipPath
       id="clipPath24864-1-7">
      <path
         d="m836 1043.7h25.5v31.5h-25.5z"
         id="path1408" />
    </clipPath>
    <clipPath
       id="clipPath24896-2-8">
      <path
         d="m838 1062.2h24v24h-24z"
         id="path1411" />
    </clipPath>
    <clipPath
       id="clipPath25070-9-6">
      <path
         d="m134 489.24h7v6h-7z"
         id="path1414" />
    </clipPath>
    <clipPath
       id="clipPath25100-3-8">
      <path
         d="m216 489.24h7v6h-7z"
         id="path1417" />
    </clipPath>
    <clipPath
       id="clipPath25502-1-8">
      <path
         d="m838 477.24h22v22h-22z"
         id="path1420" />
    </clipPath>
    <clipPath
       id="clipPath25686-9-4">
      <path
         d="m704 1061.2h25v25h-25z"
         id="path1423" />
    </clipPath>
    <clipPath
       id="clipPath25788-4-3">
      <path
         d="m663.04 1078.6-1.808-3.514-21.07-47.453c13.336-18.439 48.336-26.938 73.836-3.439 0.842 0 6.476 6.246 6 7l-18.386 25.895c-0.483 0.765-1.453 0.946-2.177 0.431l-15.505-11.011c-0.359-0.255-0.847-0.153-1.07 0.238l-18.272 31.869c-0.218 0.384-0.502 0.578-0.782 0.578-0.282 0-0.561-0.197-0.766-0.594"
         id="path1426" />
    </clipPath>
    <clipPath
       id="clipPath26420-7-1">
      <path
         d="m127 820.24h100v100h-100z"
         id="path1429" />
    </clipPath>
    <clipPath
       id="clipPath26860-8-4">
      <path
         d="m809 680.24c0-22.092 17.908-40 40-40s40 17.908 40 40c0 22.091-17.908 40-40 40s-40-17.909-40-40"
         id="path1432" />
    </clipPath>
    <clipPath
       id="clipPath27506-4-9">
      <path
         d="m658 469.24h44v45h-44z"
         id="path1435" />
    </clipPath>
    <clipPath
       id="clipPath27772-5-2">
      <path
         d="m651 271.24h58v58h-58z"
         id="path1438" />
    </clipPath>
    <clipPath
       id="clipPath27864-0-0">
      <path
         d="m662 307.24h38v8h-38z"
         id="path1441" />
    </clipPath>
    <clipPath
       id="clipPath28028-3-6">
      <path
         d="m858.98 137.24c0.013-0.101 0.021-0.203 0.021-0.307v-6.693h15.75c1.237 0 2.25-1.013 2.25-2.25v-11.25l-27-4.5-27 4.5v-2.25l27-4.5 27 4.5v-27c0-1.237-1.013-2.25-2.25-2.25h-49.5c-1.237 0-2.25 1.013-2.25 2.25v-4.25h54v54zm-35.979 0v-9.25c0 1.237 1.013 2.25 2.25 2.25h15.75v6.693c0 0.104 7e-3 0.207 0.02 0.307zm22.5-7h9v4.5h-9zm1.125-9c-0.62 0-1.125-0.506-1.125-1.125v-2.25c0-0.619 0.505-1.125 1.125-1.125h6.75c0.619 0 1.125 0.506 1.125 1.125v2.25c0 0.619-0.506 1.125-1.125 1.125z"
         id="path1444" />
    </clipPath>
    <clipPath
       id="clipPath28200-6-8">
      <path
         d="m531.27 136.24c6.325-2.29 10.727-8.277 10.727-15.484 0-11.316-10.2-20.563-25.65-34.575l-4.35-3.941-4.35 3.941c-15.45 14.012-25.65 23.259-25.65 34.575v-39.516h60v55zm-26.983 0c2.995-1.052 5.686-2.883 7.71-5.25 2.024 2.367 4.715 4.198 7.71 5.25zm-22.29 0v-15.484c0 7.207 4.402 13.194 10.727 15.484z"
         id="path1447" />
    </clipPath>
    <clipPath
       id="clipPath28364-1-9">
      <path
         d="m648 79.241h64v64h-64z"
         id="path1450" />
    </clipPath>
    <clipPath
       id="clipPath28984-0-2">
      <path
         d="m500 691.74c0-3.037 2.463-5.5 5.5-5.5s5.5 2.463 5.5 5.5-2.463 5.5-5.5 5.5-5.5-2.463-5.5-5.5"
         id="path1453" />
    </clipPath>
    <clipPath
       id="clipPath29012-6-6">
      <path
         d="m500 669.74c0-3.037 2.463-5.5 5.5-5.5s5.5 2.463 5.5 5.5c0 3.038-2.463 5.5-5.5 5.5s-5.5-2.462-5.5-5.5"
         id="path1456" />
    </clipPath>
    <clipPath
       id="clipPath29040-3-6">
      <path
         d="m494 680.74c0-3.037 2.462-5.5 5.5-5.5s5.5 2.463 5.5 5.5c0 3.038-2.462 5.5-5.5 5.5s-5.5-2.462-5.5-5.5"
         id="path1459" />
    </clipPath>
    <clipPath
       id="clipPath29068-2-4">
      <path
         d="m513 691.74c0-3.037 2.463-5.5 5.5-5.5s5.5 2.463 5.5 5.5-2.463 5.5-5.5 5.5-5.5-2.463-5.5-5.5"
         id="path1462" />
    </clipPath>
    <clipPath
       id="clipPath29096-0-9">
      <path
         d="m513 669.74c0-3.037 2.463-5.5 5.5-5.5s5.5 2.463 5.5 5.5c0 3.038-2.463 5.5-5.5 5.5s-5.5-2.462-5.5-5.5"
         id="path1465" />
    </clipPath>
    <clipPath
       id="clipPath29124-6-5">
      <path
         d="m507 680.74c0-3.037 2.463-5.5 5.5-5.5s5.5 2.463 5.5 5.5c0 3.038-2.463 5.5-5.5 5.5s-5.5-2.462-5.5-5.5"
         id="path1468" />
    </clipPath>
    <clipPath
       id="clipPath29152-1-0">
      <path
         d="m520 680.74c0-3.037 2.463-5.5 5.5-5.5s5.5 2.463 5.5 5.5c0 3.038-2.463 5.5-5.5 5.5s-5.5-2.462-5.5-5.5"
         id="path1471" />
    </clipPath>
    <clipPath
       id="clipPath29252-5-4">
      <path
         d="m321 322.24c-4.97 0-9-4.029-9-9 0-4.97 4.03-9 9-9h45c4.971 0 9 4.03 9 9 0 4.971-4.029 9-9 9z"
         id="path1474" />
    </clipPath>
    <clipPath
       id="clipPath29280-5-8">
      <path
         d="m322 297.24c-4.971 0-9-4.029-9-9 0-4.97 4.029-9 9-9h45c4.971 0 9 4.03 9 9 0 4.971-4.029 9-9 9z"
         id="path1477" />
    </clipPath>
    <clipPath
       id="clipPath29400-4-7">
      <path
         d="m155 83.24h44v53h-44z"
         id="path1480" />
    </clipPath>
    <linearGradient
       id="linearGradient4501"
       x1="9.7894"
       x2="17.727"
       y1="-30.691"
       y2="-22.754"
       gradientTransform="translate(-9.248,35.294)"
       gradientUnits="userSpaceOnUse">
      <stop
         stop-color="#143764"
         offset="0"
         id="stop1483" />
      <stop
         stop-color="#1e509b"
         offset="1"
         id="stop1485" />
    </linearGradient>
    <linearGradient
       id="linearGradient4503"
       x1="17.727"
       x2="9.8344"
       y1="-23.192"
       y2="-29.704"
       gradientTransform="translate(-9.248,35.294)"
       gradientUnits="userSpaceOnUse">
      <stop
         stop-color="#3b76cb"
         offset="0"
         id="stop1488" />
      <stop
         stop-color="#214f92"
         offset="1"
         id="stop1490" />
    </linearGradient>
    <linearGradient
       id="linearGradient4924"
       x1="18.521"
       x2="30.427"
       y1="-29.699"
       y2="-26.061"
       gradientTransform="matrix(3.7796,0,0,3.7796,-21.671,-25)"
       gradientUnits="userSpaceOnUse">
      <stop
         stop-color="#1e64af"
         offset="0"
         id="stop1493" />
      <stop
         stop-color="#3296e6"
         offset="1"
         id="stop1495" />
    </linearGradient>
    <linearGradient
       id="linearGradient4926-3"
       x1="18.521"
       x2="30.427"
       y1="-26.061"
       y2="-22.423"
       gradientTransform="matrix(3.7796,0,0,3.7796,-21.671,-25)"
       gradientUnits="userSpaceOnUse">
      <stop
         stop-color="#1e4b96"
         offset="0"
         id="stop1498" />
      <stop
         stop-color="#3278d7"
         offset="1"
         id="stop1500" />
    </linearGradient>
    <linearGradient
       id="linearGradient4928-6"
       x1="75.494"
       x2="116.38"
       y1="-77.894"
       y2="-77.894"
       gradientTransform="translate(-21.671,-25)"
       gradientUnits="userSpaceOnUse">
      <stop
         stop-color="#16326f"
         offset="0"
         id="stop1503" />
      <stop
         stop-color="#2f60bf"
         offset="1"
         id="stop1505" />
    </linearGradient>
    <linearGradient
       id="linearGradient3020"
       x1="70.011"
       x2="115"
       y1="-117.64"
       y2="-117.64"
       gradientTransform="translate(-52.953,130.5)"
       gradientUnits="userSpaceOnUse">
      <stop
         stop-color="#236eb9"
         offset="0"
         id="stop1508" />
      <stop
         stop-color="#32a5f0"
         offset="1"
         id="stop1510" />
    </linearGradient>
    <linearGradient
       id="linearGradient3033"
       x1="69.873"
       x2="115"
       y1="-126.06"
       y2="-112.25"
       gradientTransform="translate(-21.671,-25)"
       gradientUnits="userSpaceOnUse">
      <stop
         stop-color="#236eb9"
         offset="0"
         id="stop1513" />
      <stop
         stop-color="#32aff0"
         offset="1"
         id="stop1515" />
    </linearGradient>
    <filter
       id="filter3047"
       x="-.084"
       y="-.084"
       width="1.168"
       height="1.168"
       color-interpolation-filters="sRGB">
      <feGaussianBlur
         stdDeviation="0.27780551"
         id="feGaussianBlur1518" />
    </filter>
    <linearGradient
       id="linearGradient3051"
       x1="17.727"
       x2="9.8344"
       y1="-23.192"
       y2="-29.704"
       gradientTransform="translate(-8.7188,35.823)"
       gradientUnits="userSpaceOnUse"
       xlink:href="#linearGradient4503" />
    <linearGradient
       id="linearGradient4250"
       x1="17.727"
       x2="9.8344"
       y1="-23.192"
       y2="-29.704"
       gradientTransform="translate(-9.248,35.294)"
       gradientUnits="userSpaceOnUse"
       xlink:href="#linearGradient4503" />
  </defs>
  <sodipodi:namedview
     inkscape:document-rotation="0"
     inkscape:current-layer="svg18"
     inkscape:window-maximized="1"
     inkscape:window-y="0"
     inkscape:window-x="0"
     inkscape:cy="23.947251"
     inkscape:cx="1.2151515"
     inkscape:zoom="10.429825"
     showgrid="true"
     id="namedview20"
     inkscape:window-height="1000"
     inkscape:window-width="1920"
     inkscape:pageshadow="2"
     inkscape:pageopacity="0"
     guidetolerance="10"
     gridtolerance="10"
     objecttolerance="10"
     borderopacity="1"
     bordercolor="#666666"
     pagecolor="#c8c8c8">
    <inkscape:grid
       id="grid837"
       type="xygrid" />
  </sodipodi:namedview>
  <metadata
     id="metadata2">
    <rdf:RDF>
      <cc:Work
         rdf:about="">
        <dc:format>image/svg+xml</dc:format>
        <dc:type
           rdf:resource="http://purl.org/dc/dcmitype/StillImage" />
        <dc:title />
      </cc:Work>
    </rdf:RDF>
  </metadata>
  <g
     id="system-lock-screen-3"
     transform="translate(-170.18644)">
    <rect
       ry="0"
       rx="0"
       y="1.0960464e-07"
       x="123"
       height="32"
       width="32"
       id="rect1067"
       style="opacity:0;fill:#000000;fill-opacity:1;fill-rule:evenodd;stroke:none;stroke-width:2;stroke-linecap:round;stroke-linejoin:round;stroke-miterlimit:4;stroke-dasharray:none;stroke-opacity:1;paint-order:fill markers stroke" />
    <g
       id="g1602"
       transform="translate(-4,-63)">
      <path
         id="rect1564"
         d="m 130,79 v 13 h 26 V 79 Z m 1,1 h 24 v 11 h -24 z"
         style="opacity:1;fill:#eaeaea;fill-opacity:1;stroke:none;stroke-width:0.80622578;stroke-miterlimit:4;stroke-dasharray:none;stroke-opacity:1"
         inkscape:connector-curvature="0"
         sodipodi:nodetypes="cccccccccc" />
      <path
         id="rect1566"
         d="m 143,66 c -4.432,0 -8,3.568 -8,8 v 5 h 1 v -5 c 0,-3.878 3.122,-7 7,-7 3.878,0 7,3.122 7,7 v 5 h 1 v -5 c 0,-4.432 -3.568,-8 -8,-8 z"
         style="opacity:1;fill:#eaeaea;fill-opacity:1;stroke:none;stroke-width:0.8326664;stroke-miterlimit:4;stroke-dasharray:none;stroke-opacity:1"
         inkscape:connector-curvature="0"
         sodipodi:nodetypes="ssccsssccss" />
    </g>
  </g>
  <g
     transform="translate(-123,0.49023521)"
     id="system-lock-screen-36">
    <rect
       ry="0"
       rx="0"
       y="-0.49023521"
       x="123"
       height="32"
       width="32"
       id="rect1067-0"
       style="opacity:0;fill:#000000;fill-opacity:1;fill-rule:evenodd;stroke:none;stroke-width:2;stroke-linecap:round;stroke-linejoin:round;stroke-miterlimit:4;stroke-dasharray:none;stroke-opacity:1;paint-order:fill markers stroke" />
    <g
       id="g4058"
       transform="translate(-1,36.009765)">
      <circle
         r="14.5"
         cy="-20.5"
         cx="140"
         id="path6762-3"
         style="fill:none;fill-opacity:1;stroke:#191919;stroke-width:0.999997;stroke-miterlimit:4;stroke-dasharray:none;stroke-opacity:1" />
      <g
         transform="translate(0.5,1)"
         id="g4050">
        <g
           id="g4044"
           transform="translate(-0.5,-0.5)">
          <g
             transform="translate(-0.5,0.5)"
             id="g4039">
            <rect
               style="fill:#191919;fill-opacity:1;stroke:none;stroke-width:2.31451;stroke-miterlimit:4;stroke-dasharray:none;stroke-opacity:1"
               id="rect7254"
               width="13"
               height="8"
               x="134"
               y="-21"
               ry="1.3333333" />
            <path
               sodipodi:nodetypes="ssscssscsss"
               style="fill:#191919;fill-opacity:1;stroke:none;stroke-width:2.13809;stroke-miterlimit:4;stroke-dasharray:none;stroke-opacity:1"
               d="m 140.51675,-29 c -2.216,0 -4,1.560999 -4,3.5 v 4.328124 c 0,1.399387 0.64981,2.591425 2,3.152343 V -25.5 c 0,-0.830999 1.05029,-1.5 2,-1.5 0.94971,0 2,0.669001 2,1.5 v 7.480469 c 1.35019,-0.560919 2,-1.752957 2,-3.152344 v -4.328124 c 0,-1.939 -1.784,-3.5 -4,-3.500001 z"
               id="rect7256"
               inkscape:connector-curvature="0" />
          </g>
        </g>
      </g>
    </g>
  </g>
</svg>
